<?xml version="1.0" encoding="UTF-8"?>
<svg id="Capa_1" data-name="Capa 1" xmlns="http://www.w3.org/2000/svg" version="1.1" viewBox="0 0 49.04 64.32">
  <defs>
    <style>
      .cls-1 {
        fill: none;
        stroke-linejoin: round;
      }

      .cls-1, .cls-2 {
        stroke: #5c3141;
        stroke-linecap: round;
      }

      .cls-2 {
        fill: #fadf7d;
        stroke-miterlimit: 10;
      }
    </style>
  </defs>
  <path class="cls-1" d="M38.26,56c-.5,9.9-15,5.6-9.8-3.5-11.8,6.3-17.4-14.2-4-17C9.96,38.8,3.56,22.4.46,9.4c5,2.6,9,3,12.3,2.1,6.5-1.8,7.2-7.7,14.7-10.1,1.4-.4,7.2-2.1,13,1,5.7,3,7.6,8.6,8,10"/>
  <path class="cls-2" d="M13.46,49.4c0,.5,0,1.8,1,3,1.1,1.5,2.6,1.9,3,2-.5,0-1.3.3-2,1-.5.5-.7,1.1-1,2-.3,1-.7,2.4-1,4-.1-.5-.7-3.3-2-5-.5-.6-1-1-1-1-.8-.6-1.5-.9-2-1,.6-.2,1.3-.5,2-1,1.9-1.3,2.7-3.2,3-4Z"/>
</svg>