<?xml version="1.0" encoding="UTF-8"?>
<svg id="Capa_1" data-name="Capa 1" xmlns="http://www.w3.org/2000/svg" version="1.1" xmlns:xlink="http://www.w3.org/1999/xlink" viewBox="0 0 40 40">
  <defs>
    <style>
      .cls-1 {
        fill: url(#Degradado_sin_nombre_17);
        fill-rule: evenodd;
        isolation: isolate;
        opacity: .2;
      }

      .cls-1, .cls-2 {
        stroke-width: 0px;
      }

      .cls-2 {
        fill: url(#Degradado_sin_nombre_16);
      }
    </style>
    <linearGradient id="Degradado_sin_nombre_17" data-name="Degradado sin nombre 17" x1="-3.9" y1="1049.4" x2="24.7" y2="1065.9" gradientTransform="translate(9 -1038)" gradientUnits="userSpaceOnUse">
      <stop offset=".3" stop-color="#ffbb0d"/>
      <stop offset="1" stop-color="#ff9f2f"/>
    </linearGradient>
    <linearGradient id="Degradado_sin_nombre_16" data-name="Degradado sin nombre 16" x1="-4.7" y1="1048.8" x2="25.5" y2="1066.5" gradientTransform="translate(9 -1038)" gradientUnits="userSpaceOnUse">
      <stop offset=".3" stop-color="#ffbb0d"/>
      <stop offset="1" stop-color="#ff9f2f"/>
    </linearGradient>
  </defs>
  <path class="cls-1" d="M12,1c-1.1,0-2,.9-2,2v34c0,1.1.9,2,2,2h15.9c1.1,0,2-.9,2-2V3c0-1.1-.9-2-2-2h-3.2v1h-9.4v-1h-3.3Z"/>
  <path class="cls-2" d="M17.5,35.7c-.4,0-.7.3-.7.7s.3.7.7.7v-1.4ZM22.5,37c.4,0,.7-.3.7-.7s-.3-.7-.7-.7v1.4ZM9.4,29.4c0,.4.3.7.7.7s.7-.3.7-.7h-1.4ZM10.8,32.4c0-.4-.3-.7-.7-.7s-.7.3-.7.7h1.4ZM29.2,7.6c0,.4.3.7.7.7s.7-.3.7-.7c0,0-1.4,0-1.4,0ZM30.6,10.6c0-.4-.3-.7-.7-.7s-.7.3-.7.7h1.4ZM27.5,38.6h-15v1.4h15v-1.4ZM12.5,1.4h3V0h-3v1.4ZM14.9,1.7h1.4V.7h-1.4v1ZM16.5,3.3h7v-1.4h-7v1.4ZM15.5,1.4h8.9V0h-8.9v1.4ZM24.4,1.4h3V0h-3v1.4ZM25.1,1.7V.7h-1.4v1h1.4ZM17.5,37h5v-1.4h-5v1.4ZM10.8,29.4V3.1h-1.4v26.3h1.4ZM10.8,36.9v-4.5h-1.4v4.5h1.4ZM29.2,3.1v4.5h1.4V3.1h-1.4ZM29.2,10.6v26.3h1.4V10.6h-1.4ZM23.5,3.3c.9,0,1.6-.7,1.6-1.6h-1.4c0,.2-.1.3-.3.3v1.4h0ZM12.5,38.6c-1,0-1.7-.8-1.7-1.7h-1.4c0,1.7,1.4,3.1,3.1,3.1,0,0,0-1.4,0-1.4ZM27.5,40c1.7,0,3.1-1.4,3.1-3.1h-1.4c0,1-.8,1.7-1.7,1.7,0,0,0,1.4,0,1.4ZM27.5,1.4c1,0,1.7.8,1.7,1.7h1.4c0-1.7-1.4-3.1-3.1-3.1v1.4ZM14.9,1.7c0,.9.7,1.6,1.6,1.6v-1.4c-.2,0-.3-.1-.3-.3h-1.4,0ZM12.5,0c-1.7,0-3.1,1.4-3.1,3.1h1.4c0-1,.8-1.7,1.7-1.7,0,0,0-1.4,0-1.4Z"/>
</svg>