<?xml version="1.0" encoding="UTF-8"?>
<svg xmlns="http://www.w3.org/2000/svg" width="204" height="43" viewBox="0 0 204 43" fill="none">
  <path d="M85.6058 29.5323V34.9844H58.2695V31.6526L75.4588 13.4031H58.8753V7.951H85.6058V11.2829L68.4165 29.5323H85.6058Z" fill="black"></path>
  <path d="M91.7016 7.951H97.9866V34.9844H91.7016V7.951Z" fill="black"></path>
  <path d="M110.178 21.4677C110.178 22.6414 110.405 23.7394 110.822 24.7996C111.238 25.8597 111.92 26.8063 112.866 27.6014C113.775 28.3965 114.987 29.078 116.463 29.5702C117.94 30.0624 119.682 30.2895 121.764 30.2895C123.241 30.2895 124.604 30.2138 125.739 30.0245C126.913 29.8352 127.784 29.5702 128.39 29.2673V24.3074H121.272V19.0446H134.221V32.5234C133.463 33.2049 132.63 33.735 131.608 34.1515C130.624 34.5679 129.563 34.9087 128.465 35.1359C127.367 35.363 126.232 35.5145 125.058 35.6281C123.922 35.7038 122.786 35.7417 121.726 35.7417C118.659 35.7417 116.009 35.363 113.737 34.6058C111.465 33.8486 109.61 32.8263 108.134 31.5011C106.657 30.2138 105.521 28.6993 104.802 26.9577C104.082 25.216 103.704 23.3987 103.704 21.4677C103.704 19.5368 104.082 17.7194 104.802 15.9777C105.521 14.2361 106.657 12.7216 108.134 11.4343C109.61 10.147 111.503 9.08687 113.737 8.32963C116.009 7.57239 118.659 7.19377 121.726 7.19377C122.786 7.19377 123.771 7.23164 124.679 7.34523C125.588 7.42095 126.421 7.5724 127.178 7.72385C127.935 7.8753 128.617 8.0646 129.261 8.25391C129.904 8.44322 130.434 8.63253 130.927 8.8597C132.1 9.35191 133.047 9.88197 133.804 10.4878L130.813 14.8797C130.018 14.4633 129.185 14.1225 128.2 13.7818C127.367 13.5167 126.421 13.2517 125.323 13.0245C124.225 12.7973 123.013 12.6837 121.726 12.6837C119.644 12.6837 117.902 12.9109 116.425 13.4031C114.949 13.8953 113.775 14.539 112.829 15.3719C111.92 16.167 111.238 17.1136 110.784 18.1737C110.367 19.2339 110.178 20.3319 110.178 21.4677Z" fill="black"></path>
  <path d="M162.882 7.951H169.167V34.9844H162.882V23.9287H146.563V34.9844H140.278V7.951H146.563V18.4766H162.882V7.951Z" fill="black"></path>
  <path d="M204 7.951V13.4031H192.376V34.9844H186.091V13.4031H174.468V7.951H204Z" fill="black"></path>
  <path d="M43.2004 15.4477L33.6592 20.9755L32.1069 21.8842L18.5523 29.7216V41.4588C19.9911 41.7617 21.4677 41.951 23.02 41.951C32.1069 41.951 39.8686 36.1581 42.7461 28.0557C42.9354 27.5635 43.0869 27.0334 43.2383 26.5412C43.7305 24.7617 43.9955 22.9443 43.9955 21.0134C43.9198 19.0824 43.6548 17.2272 43.2004 15.4477Z" fill="#007AFF"></path>
  <path d="M2.04454 20.9755C2.04454 24.3452 2.83964 27.5256 4.24053 30.3274L0 42.8976L10.4877 37.7862C12.4187 39.225 14.5768 40.3229 16.9621 41.0423V30.6303V28.8129V13.1381L7.00445 7.38307C3.89978 11.0557 2.04454 15.7884 2.04454 20.9755Z" fill="#007AFF"></path>
  <path d="M32.0312 20.0668L42.7082 13.8953C39.7929 5.79287 32.069 0 22.9822 0C21.4677 0 19.9532 0.151449 18.5145 0.492206C17.9844 0.605792 17.4543 0.757236 16.9621 0.908684C13.5546 1.93096 10.5256 3.78619 8.10245 6.24721L16.9621 11.3586L18.5145 12.2673L32.0312 20.0668Z" fill="#007AFF"></path>
</svg>
