<?xml version="1.0" encoding="UTF-8"?>
<svg id="Capa_1" data-name="Capa 1" xmlns="http://www.w3.org/2000/svg" version="1.1" viewBox="0 0 37.08 26.37">
  <defs>
    <style>
      .cls-1 {
        fill: #6dc4cb;
        stroke-width: 0px;
      }
    </style>
  </defs>
  <path class="cls-1" d="M22.74,17.55c-.59,2.93-1.18,5.86-1.78,8.82h-4.26c.17-.8.33-1.58.49-2.36.68-3.14,1.35-6.28,2.04-9.42.06-.27.01-.48-.14-.73-.93-1.47-1.83-2.95-2.77-4.47,0,.22,0,.44,0,.66.03,1.35-.06,2.67-.55,3.95-1.37,3.56-4.9,5.67-8.74,5.2-3.55-.43-6.48-3.4-6.96-7.05-.05-.37-.07-.74-.08-1.11C0,7.51,0,3.97,0,.44c0-.11,0-.22,0-.36h4.04c0,.16,0,.32,0,.48,0,3.41,0,6.82,0,10.24,0,2.05,1.24,3.63,3.17,4.05,2.31.51,4.7-1.28,4.73-3.65.05-3.56.02-7.13.02-10.69,0-.16,0-.32,0-.51h4.2c.96,3.16,2.36,6.13,4.17,9,.09-.25.16-.43.22-.61.77-2.15,1.99-3.94,4.02-5.08,4.75-2.69,11,.22,12.07,5.61.91,4.59-1.85,9.01-6.33,10.01-2.49.56-4.85.08-7.08-1.14-.13-.07-.26-.15-.4-.22-.02-.01-.05,0-.11,0ZM28.26,14.93c1.43.02,2.52-.48,3.38-1.44,1.13-1.27,1.48-2.74.82-4.34-.69-1.64-1.99-2.52-3.77-2.59-1.68-.07-2.85.79-3.62,2.24-.12.23-.26.46-.33.71-.31,1.13-.61,2.26-.89,3.4-.02.08.05.24.13.3,1.29,1.01,2.73,1.66,4.27,1.72Z"/>
</svg>