<?xml version="1.0" encoding="UTF-8"?>
<svg id="Capa_2" data-name="Capa 2" xmlns="http://www.w3.org/2000/svg" version="1.1" viewBox="0 0 207.6 108.4">
  <defs>
    <style>
      .cls-1 {
        fill: #ef68a2;
      }

      .cls-1, .cls-2, .cls-3, .cls-4 {
        stroke: #5b3041;
      }

      .cls-1, .cls-2, .cls-4 {
        stroke-miterlimit: 10;
      }

      .cls-1, .cls-3, .cls-4 {
        stroke-linecap: round;
      }

      .cls-2, .cls-4 {
        fill: #fbdf7c;
      }

      .cls-3 {
        fill: #fff;
        stroke-linejoin: round;
      }
    </style>
  </defs>
  <g id="Capa_1-2" data-name="Capa 1-2">
    <g>
      <path class="cls-3" d="M175.1,66.1c.5,2.3,2.3,4.2,4.5,4.6,1.5.3,3.6,0,4.9-1.5,1.5-1.8,1.2-5-1-7.3.7.3,3.3,1.1,6,0,3.3-1.3,4.8-4.6,5-7,.4-4.4-3.1-9.2-9-11,2.6,0,6.5-.3,10.2-3,0,0,.2-.2.4-.3,5-3.9,7.4-10.7,8.4-13.6,1-2.9,2.1-7.1,2.6-12.3-1.2,1.1-3,2.6-5.7,3.6-4.8,1.8-10.6,1.1-14.9-1.3-2.6-1.4-3.5-2.8-7-4-.7-.2-2.6-.9-5-1-3.5-.2-9.9.7-14,6-4.3,5.5-3.2,12-3,13"/>
      <path class="cls-3" d="M38.3,61.5c-.5,9.9-15,5.6-9.8-3.5-11.8,6.3-17.4-14.2-4-17C10,44.3,3.6,27.9.5,14.9c5,2.6,9,3,12.3,2.1,6.5-1.8,7.2-7.7,14.7-10.1,1.4-.4,7.2-2.1,13,1,5.7,3,7.6,8.6,8,10"/>
      <path class="cls-1" d="M86.5,61.9v-22l9-3c.1,7,0,12.5,0,16,0,4.4-.3,11.2,3,17,.6,1.1,1.3,2.1,2,2,.4,0,1.6-.6,2-9,.3-5.8.2-14.7-2-27,4.7-1.3,9.3-2.7,14-4,1.8,14.2,2.1,26.1,2,35,0,3.5-.3,13.9-6,23-2.4,3.8-4.3,5.1-6,5-2.3,0-4.2-2.5-6-6-2.3-4.4-6-13.3-7-29-1.7.7-3.3,1.3-5,2Z"/>
      <path class="cls-1" d="M96.5,91.9c-7.8-11.4-8.1-23.2-8-28-1.3.3-2.7.7-4,1-1-7.7-2-15.3-3-23-.6,1.7-2,5-5,8-1.3,1.3-3.9,3.6-8,5-1.7,4.8-3.7,9.8-6,15-1.8,4.1-3.1,7.3-5,11l1,12c2.2-.3,5-.8,8-2,2.4-.9,4.4-2,6-3v-16c1.7.7,3.3,1.3,5,2l6,33c3.6.8,9.8,1.8,17,0,3.2-.8,5.9-1.9,8-3-3.4-2.3-8-6.2-12-12ZM76.5,68.9c1-5.3,2-10.7,3-16,0,2.8.2,6.2,1,10,.6,2.7,1.3,5,2,7-2-.3-4-.7-6-1Z"/>
      <path class="cls-1" d="M116.5,30.9c1.4,8.5,2.6,18.2,3,29,.4,11.5,0,22-1,31,2.3-1.2,5.3-2.4,9-3,11.1-1.8,19.9,3.1,23,5-.3-7.3-.7-14.7-1-22-6.7,1.7-13.3,3.3-20,5,0-7.7.3-16.1,1-25,.7-8.6,1.8-16.6,3-24-5.7,1.3-11.3,2.7-17,4Z"/>
      <path class="cls-1" d="M182.5,97.9c-4.6-7.7-7.4-14.4-9-19-2.7-7.5-4.2-14.8-7-29-1.4-6.8-2.4-12.3-3-16-6.7.7-13.3,1.3-20,2-.1,4.9-.7,10.6-2,17-1.6,7.6-3.8,13.9-6,19,5.7-1.3,11.3-2.7,17-4v-6c1.3-.3,2.7-.7,4-1v36c8.7.3,17.3.7,26,1ZM155.5,57.9c.7-5,1.3-10,2-15,1.3,5,2.7,10,4,15h-6Z"/>
      <path class="cls-1" d="M78.8,30.5c-1.7-6.4-7.3-14-14.9-14.2-8.1-.2-16.5,8-16.6,19.3-.2-1.8-.4-3.6-.6-5.5,0-1.4-.2-2.7-.2-4-1,.6-2.6,1.5-4.8,1.9-2.4.5-4.3.2-5.5,0,2.4,5.8,4.8,13.7,5.7,23.2,1.7,18.7-3.5,33.6-6.9,41.3,2.3-.3,5.6-.5,9.3.2,6,1.1,10.2,3.8,12.4,5.6-.9-11.6-1.8-23.3-2.7-34.9l-1.6-12c1.7.9,5,2.2,9.1,2,6.4-.3,13-4.1,16-10.4,2.7-5.7,1.5-11.1,1.1-12.4h0ZM57,44.9c-.8,0-1.5-3.4-1.5-7.5s.7-7.5,1.5-7.5,1.5,3.4,1.5,7.5-.7,7.5-1.5,7.5Z"/>
      <path class="cls-4" d="M13.5,54.9c0,.5,0,1.8,1,3,1.1,1.5,2.6,1.9,3,2-.5,0-1.3.3-2,1-.5.5-.7,1.1-1,2-.3,1-.7,2.4-1,4-.1-.5-.7-3.3-2-5-.5-.6-1-1-1-1-.8-.6-1.5-.9-2-1,.6-.2,1.3-.5,2-1,1.9-1.3,2.7-3.2,3-4Z"/>
      <path class="cls-2" d="M133.9,1.8c-.8-2.3-10.6-1.1-16.2,0-15.1,3-30.3,11.8-29.2,14.9,1,3.1,17.7,1.5,31.2-4.6,6.4-2.9,15.1-8.1,14.3-10.4h0ZM112.5,10.9c-5.1,1.9-11.9,3.3-12.3,2.2-.4-1.1,5.8-4.9,12.3-6.7,3.9-1.1,9.1-1.8,9.4-.8.3,1-5.1,3.8-9.4,5.4Z"/>
    </g>
  </g>
</svg>