<?xml version="1.0" encoding="UTF-8"?>
<svg id="Capa_2" data-name="Capa 2" xmlns="http://www.w3.org/2000/svg" version="1.1" viewBox="0 0 164 164">
  <defs>
    <style>
      .cls-1 {
        fill: #89cdcf;
        stroke-width: 0px;
      }

      .cls-2 {
        fill: #ef68a2;
      }

      .cls-2, .cls-3, .cls-4, .cls-5 {
        stroke: #5b3041;
      }

      .cls-2, .cls-3, .cls-5 {
        stroke-miterlimit: 10;
      }

      .cls-2, .cls-4, .cls-5 {
        stroke-linecap: round;
      }

      .cls-3, .cls-5 {
        fill: #fbdf7c;
      }

      .cls-4 {
        fill: #fff;
        stroke-linejoin: round;
      }
    </style>
  </defs>
  <circle class="cls-1" cx="82" cy="82" r="82"/>
  <g>
    <g id="Capa_1-2" data-name="Capa 1-2">
      <g>
        <path class="cls-4" d="M73.76,109.88c-3.01.83-8.15.35-9.42-2.8-.69-1.72-.6-3.92.84-6.45-13.25,7.07-19.55-16.03-4.5-19.13-16.3,3.77-23.51-14.72-27.01-29.27,5.63,2.91,10.17,3.33,13.89,2.33,7.37-1.99,8.13-8.68,16.5-11.33.98-.31,8-2.41,14.63,1.13,5.6,2.99,7.85,8.37,9,11.25,3.58,8.94,1.59,16.91-2.19,31.21-3.52,13.3-5.79,21.44-11.74,23.08Z"/>
        <path class="cls-2" d="M129.67,61.89c-1.9-7.18-8.18-15.78-16.76-16-9.08-.25-18.62,8.95-18.64,21.76-.25-1.97-.46-4.04-.63-6.19-.11-1.54-.19-3.05-.25-4.5-1.08.7-2.94,1.7-5.44,2.18-2.68.52-4.9.21-6.19-.07,2.66,6.54,5.39,15.39,6.38,26.08,1.96,21.06-3.92,37.79-7.75,46.52,2.59-.35,6.26-.54,10.5.25,6.72,1.26,11.49,4.33,14,6.26-1-13.09-2-26.18-3.01-39.27l-1.77-13.51c1.95.97,5.62,2.45,10.28,2.25,7.21-.32,14.6-4.59,18.01-11.75,3.07-6.45,1.64-12.54,1.25-14h.01ZM105.13,78.11c-.93,0-1.69-3.78-1.69-8.44s.75-8.44,1.69-8.44,1.69,3.78,1.69,8.44-.75,8.44-1.69,8.44Z"/>
        <path class="cls-3" d="M129.85,27.18c-.79-2.33-10.65-1.15-16.35,0-15.23,3.06-30.48,11.84-29.44,15.05,1.02,3.15,17.87,1.46,31.4-4.58,6.48-2.89,15.18-8.11,14.39-10.47ZM108.25,36.34c-5.13,1.87-12.02,3.29-12.44,2.18-.42-1.13,5.85-4.94,12.44-6.76,3.97-1.09,9.18-1.78,9.49-.82.33,1.02-5.09,3.8-9.49,5.4Z"/>
      </g>
    </g>
    <path class="cls-5" d="M43.67,97.29c0,.56,0,2.03,1.13,3.38,1.24,1.69,2.93,2.14,3.38,2.25-.56,0-1.46.34-2.25,1.13-.56.56-.79,1.24-1.13,2.25-.34,1.13-.79,2.7-1.13,4.5-.11-.56-.79-3.71-2.25-5.63-.56-.68-1.13-1.13-1.13-1.13-.9-.68-1.69-1.01-2.25-1.13.68-.23,1.46-.56,2.25-1.13,2.14-1.46,3.04-3.6,3.38-4.5Z"/>
  </g>
</svg>