<?xml version="1.0" encoding="UTF-8"?>
<svg id="Capa_2" data-name="Capa 2" xmlns="http://www.w3.org/2000/svg" version="1.1" viewBox="0 0 192.9 227.1">
  <defs>
    <style>
      .cls-1 {
        isolation: isolate;
      }

      .cls-2 {
        fill: #f26baa;
      }

      .cls-2, .cls-3 {
        stroke-width: 0px;
      }

      .cls-3 {
        fill: #fff;
      }
    </style>
  </defs>
  <g id="Capa_1-2" data-name="Capa 1-2">
    <g>
      <path class="cls-2" d="M139.6,227.1H53.3c-29.5,0-53.3-23.9-53.3-53.3V53.3C0,23.9,23.9,0,53.3,0h61.8c-7.1,22.6-1.1,47.3,15.6,64,16.2,16.3,40,22.6,62.2,16.4v93.3c0,29.5-23.9,53.3-53.3,53.3h0Z"/>
      <path class="cls-2" d="M129.8,8.9c-5.8,3.6-2.3,20.2,1.8,29.3,6.8,15.2,20.3,21.1,25,23.1,9.5,4,27.6,8.1,31,2.2,6.9-11.7-45.5-62.3-57.8-54.7h0Z"/>
    </g>
    <g class="cls-1">
      <g class="cls-1">
        <g class="cls-1">
          <path class="cls-3" d="M67.8,125.9c-1.3,2.4-3.4,4.4-6.2,5.9-2.8,1.5-6.3,2.2-10.4,2.2h-7.7v18.2h-12.3v-50.7h20c4,0,7.5.7,10.3,2.1,2.8,1.4,4.9,3.3,6.3,5.8,1.4,2.5,2.1,5.3,2.1,8.4s-.7,5.6-2,8ZM55.5,122.5c1.2-1.1,1.7-2.7,1.7-4.7s-.6-3.6-1.7-4.7c-1.2-1.1-2.9-1.7-5.3-1.7h-6.7v12.7h6.7c2.4,0,4.1-.6,5.3-1.7Z"/>
          <path class="cls-3" d="M109.2,104.7c4,2.1,7.1,5.1,9.3,8.9,2.2,3.8,3.3,8.2,3.3,13.2s-1.1,9.4-3.3,13.2c-2.2,3.9-5.3,6.8-9.3,9-4,2.1-8.7,3.2-14,3.2h-19v-50.7h19c5.3,0,10,1.1,14,3.2ZM105.3,137.7c2.6-2.6,3.9-6.2,3.9-10.8s-1.3-8.3-3.9-10.9c-2.6-2.6-6.2-3.9-10.9-3.9h-5.8v29.5h5.8c4.7,0,8.3-1.3,10.9-3.8Z"/>
          <path class="cls-3" d="M161.7,101.5v9.9h-20.6v10.7h15.5v9.6h-15.5v20.5h-12.3v-50.7h33Z"/>
        </g>
      </g>
    </g>
  </g>
</svg>