<?xml version="1.0" encoding="UTF-8"?>
<svg id="Capa_2" data-name="Capa 2" xmlns="http://www.w3.org/2000/svg" viewBox="0 0 469 474.65">
  <defs>
    <style>
      .cls-1 {
        fill: #37231d;
      }

      .cls-1, .cls-2, .cls-3, .cls-4, .cls-5, .cls-6, .cls-7, .cls-8, .cls-9, .cls-10, .cls-11, .cls-12, .cls-13, .cls-14 {
        stroke-width: 0px;
      }

      .cls-2 {
        fill: #ffd402;
      }

      .cls-3 {
        fill: #3bbdee;
      }

      .cls-4 {
        fill: #ffe160;
      }

      .cls-5 {
        fill: #ffde1a;
      }

      .cls-6 {
        fill: #ec62a0;
      }

      .cls-7 {
        fill: #eaa27a;
      }

      .cls-8 {
        fill: #010101;
      }

      .cls-15 {
        stroke: #fff;
        stroke-miterlimit: 10;
      }

      .cls-15, .cls-16 {
        stroke-width: 1.06px;
      }

      .cls-15, .cls-12 {
        fill: #fff;
      }

      .cls-16, .cls-17 {
        fill: none;
        stroke: #010101;
        stroke-linecap: round;
        stroke-linejoin: round;
      }

      .cls-9 {
        fill: #040506;
      }

      .cls-10 {
        fill: #de798b;
      }

      .cls-11 {
        fill: #522710;
      }

      .cls-13 {
        fill: #ca5e80;
      }

      .cls-14 {
        fill: #d96583;
      }

      .cls-17 {
        stroke-width: .6px;
      }
    </style>
  </defs>
  <g id="Capa_1-2" data-name="Capa 1">
    <g>
      <g>
        <path class="cls-11" d="M129.78,66.06c-3.11-10.69-23.61-14.23-37.57-12.48-33.23,4.17-63.68,42.62-65.07,79.08-.64,16.74,5.3,31.79,17.17,61.91,10.83,27.48,18.95,37.42,16.72,56.03-.49,4.13-3.62,26.46-19.88,33.89-5.99,2.74-17.3,5.07-23.04-1.36-5.47-6.12-3.2-17.18,2.26-23.5,6.04-6.98,16.83-9.13,26.66-4.97-1.69-2.23-4.46-5.15-8.59-6.78-14.15-5.59-37.41,6.71-38.41,23.5-.48,8.14,4.29,16.9,11.75,21.24,7.97,4.63,16.31,2.65,21.76,1.35,16.82-4,26.65-16.89,30.21-22.14.58,2.09,1.72,7.31-.45,13.1-2.39,6.38-8.7,13.18-14.91,12.65-9.31-.8-17.15-17.96-11.75-28.02,1.78-3.32,4.68-5.25,6.78-6.33-3.23.15-9.42.96-14.46,5.42-9.62,8.52-10.45,26.26-1.36,36.15,10.4,11.32,28.69,6.8,38.41.45,8.37-5.47,12.09-13.41,13.56-17.17,3.49,19.69,5.31,36.19,6.33,48.35,1.59,18.97,1.11,25.97-3.61,29.37-5.97,4.3-18.21,2.49-20.79-4.07-2.1-5.35,2.12-14.12,11.75-18.07-2.9,0-8.38.39-14.01,3.61-1.86,1.06-13.91,8.28-13.56,21.24.27,9.98,7.76,18.19,15.82,20.79,14.23,4.59,28.04-9.03,29.82-10.84,14.48-14.7,12.85-38.32,7.23-76.82-12.3-84.26-18.45-126.39-24.85-150.02,0,0-8.38-30.91,2.26-65.07,1.25-4,3.56-10.26,8.13-11.3,8.37-1.89,14.05,16.01,25.3,16.27,10.66.24,23.32-15.41,20.4-25.47Z"/>
        <path class="cls-11" d="M167.76,66.86s-.63-5.87,2.82-12.34c6.87-12.89,24.28-15.31,33.02-16.53,41.43-5.78,84.01,19.35,86.76,21.01,11.63,7.04,62.27,37.66,74.56,92.86,7.56,33.93-6.61,44.71-4.74,98.28.65,18.77-4.16,55.91,12.88,77.27,7.17,8.99,14.52,10.99,16.94,11.52,6.8,1.5,19.18,1.2,25.08-8.13,5.1-8.08,3.43-19.91-4.74-27.79,1.99.84,22.92,10.14,27.79,33.21,4.36,20.65-8.22,36.36-12.2,41.35-16.41,20.56-41.31,22.6-46.77,23.04-40.08,3.28-65.91-29.29-67.78-31.74-9.97-13.02-13.63-26.31-15.13-34.01"/>
        <path class="cls-7" d="M320.29,200.85s.9-26.63,10.73-11.72c4.74,7.19,23.21,33.57,10,56.6-1.94,3.38-9.62,9-17.45,13.89"/>
        <path class="cls-2" d="M326.96,248.1c8.64,33.04,8.95,59.88,7.57,78.31-.94,12.58-3.02,40.3-12.99,42.34-6.49,1.33-13.47-8.82-14.91-10.84-10.4-14.64-4.62-32.61-3.73-35.25,4.7,9.4,11.61,21.51,16.34,20.38,3.05-.73,4.1-6.7,4.67-10.89,3.24-23.7,1.14-63.01-.34-84.39l3.39.34Z"/>
        <path class="cls-4" d="M305.37,332.47c4.7,9.4,11.61,21.51,16.34,20.38,3.05-.73,4.1-6.7,4.67-10.89,3.24-23.7,1.14-63.01-.34-84.39,1.09.11,2.17.22,3.26.33-.71-3.21-1.47-6.46-2.35-9.79l-3.39-.34c1.48,21.37,3.58,60.69.34,84.39-.57,4.19-1.62,10.16-4.67,10.89-4.73,1.13-11.64-10.98-16.34-20.38-.77,2.28-5.17,15.96.31,29.07-1.02-9.46,1.59-17.56,2.17-19.27Z"/>
        <path class="cls-11" d="M178.28,46.05c-14.75,2.91-38.91,9.97-60.08,29.22-42.85,38.98-42.74,100.04-42.7,120.65.04,20.05,3.04,64.09,16.27,112.51,4.24,15.54,12.49,42.33-.68,61-1.35,1.91-7.89,11.19-17.62,11.52-12.13.41-26.67-13.19-23.72-27.11,1.72-8.13,9.04-14.67,18.3-16.94-3.22-1.45-10.81-4.28-18.3-1.36-14.68,5.74-14.92,28.16-14.91,31.18.06,16.9,10.55,28.11,12.2,29.82,14.73,15.27,35.76,13.95,42.02,13.56,32.59-2.05,50.76-28.97,52.19-31.18,11.95-18.43,11.38-37.29,10.84-44.06"/>
        <g>
          <path class="cls-2" d="M114.09,229.42c.6-2.32.75-4.56.51-6.42-.01-.09.01.09,0,0-.11.07-.23.13-.34.2-.13.07-.26.15-.39.22.21,1.47.05,2.85-.42,4.71-1.09,4.24-3.71,7.24-5.84,6.69-2.13-.55-2.98-4.44-1.88-8.68,1.09-4.24,3.71-7.24,5.84-6.69.31.08.59.24.84.47.02-.02.04-.05.06-.08.08-.09.15-.17.24-.25.12-.1.25-.18.37-.26.04-.02.07-.04.11-.06-.42-.51-.92-.87-1.5-1.02-2.75-.71-6.11,3.14-7.52,8.6-1.41,5.46-.32,10.46,2.42,11.17,2.75.71,6.11-3.14,7.52-8.6Z"/>
          <g>
            <path class="cls-4" d="M111.55,219.45c.31.08.59.25.84.47.02-.02.04-.05.06-.08.08-.09.15-.17.24-.25.12-.1.25-.18.37-.26.03-.02.07-.03.1-.05-.42-.51-.91-.87-1.5-1.02-.5-.13-1.02-.1-1.54.05-1.64.87-3.25,3.3-4.05,6.39-.06.24-.12.48-.17.72,1.19-3.86,3.63-6.49,5.64-5.97Z"/>
            <path class="cls-4" d="M113.86,223.42c.02.13-.01-.14,0,0,.12,1.19.04,2.56-.26,3.99.07-.23.14-.47.2-.71.34-1.32.5-2.36.48-3.52-.15.06-.26.16-.43.24Z"/>
            <path class="cls-4" d="M114.09,229.42c.06-.24.11-.48.17-.72-1.51,5.08-4.69,8.57-7.32,7.89s-3.72-5.27-2.59-10.44c-.07.24-.14.47-.2.71-1.41,5.46-.32,10.46,2.42,11.17s6.11-3.14,7.52-8.6Z"/>
          </g>
        </g>
        <g>
          <path class="cls-5" d="M119.88,286.17c-5.67,4.02-14.12,11.1-20.89,22.25-11.85,19.52-17.08,49.12-2.94,72.52,1.91,3.15,15.14,25.09,32.53,23.95,18.85-1.24,31.59-28.86,33.33-49.37,1.07-12.61-1.99-22.95-4.41-29.15-1.69-.11-3.39-.23-5.08-.34-.15,5.09-1.03,29.46-8.04,44.98-2.52,5.57-5.28,8.81-8.73,10.94-1.22.75-5.78,3.38-11.86,2.88-7.09-.58-11.69-5.03-13.95-7.29-8.44-8.41-9.43-19.72-9.94-26.77-1.39-19.14,6.14-33.48,8.56-37.74,5.11-8.99,11.29-15,15.5-18.52"/>
          <g>
            <path class="cls-4" d="M120.03,287.83c-4.21,3.52-10.39,9.53-15.5,18.52-2.42,4.25-9.95,18.6-8.56,37.74.46,6.3,1.31,16,7.51,23.99-2.69-6.25-3.24-12.68-3.58-17.29-1.39-19.14,6.14-33.48,8.56-37.74,5.11-8.99,11.29-15,15.5-18.52l-4.08-8.36c-.16.11-.33.24-.49.35l.64,1.31Z"/>
            <path class="cls-4" d="M157.51,326.39c-.58-.04-1.15-.08-1.73-.12,1.67,5.97,2.96,13.7,2.21,22.56-1.73,20.5-14.47,48.13-33.33,49.37-14.51.95-26.12-14.16-30.68-21.02.64,1.27,1.33,2.53,2.08,3.77,1.91,3.15,15.14,25.09,32.53,23.95,18.85-1.24,31.59-28.86,33.33-49.37,1.07-12.61-1.99-22.95-4.41-29.15Z"/>
          </g>
        </g>
        <path class="cls-7" d="M138.53,115.25c-2.01,7.92-5.45,18.14-11.52,29.15-7.32,13.26-15.81,22.83-22.37,29.15.17,29.03,3.19,52.87,6.1,69.81,5.61,32.65,8.67,49.32,21.01,66.42,12.79,17.71,18.24,12.19,34.57,33.21,18.33,23.59,16.39,36.88,33.89,48.12,14.25,9.15,29.01,9,33.21,8.81,20.75-.91,34.98-13.46,44.06-21.69,33.05-29.98,39.77-73.12,43.38-96.25,2.66-17.05,2.71-30.98,2.71-38.63,0-25.12-3.42-46.04-6.78-61-9.43-12.31-24.1-27.14-45.41-33.89-28.87-9.15-47.15,3.75-79.3-3.39-14.21-3.16-33.12-10.67-53.55-29.82Z"/>
        <g>
          <path class="cls-16" d="M181.87,258.16c-10.48,7.82-3.22,25.76,10.61,20.58"/>
          <path class="cls-16" d="M191.2,271.5c2.74-2.54,8.69-1.02,9.61,2.84"/>
          <path class="cls-16" d="M225.32,265.89c-2.6-2.98-9.44.17-7.68,3.71"/>
          <path class="cls-16" d="M234.14,250.58c6.8,5.9,8.14,21.11-4.11,19.87"/>
        </g>
        <path class="cls-11" d="M124.13,181.21c-6.77,5.78-7.74,13.35-7.74,13.35,0,0,2.66-2.95,7.74-5.27v-8.08Z"/>
        <path class="cls-11" d="M130.57,177.37v9.81c2.8-.58,5.97-.86,9.55-.54,15.36,1.36,32.99,5.65,32.99,5.65v-8.81s-30.09-10.02-42.53-6.11Z"/>
        <path class="cls-11" d="M211.38,179.53s36.27-26.77,49.83-22.71c13.56,4.07,24.17,11.07,24.17,11.07,0,0-20.33-8.81-32.99-1.58-12.65,7.23-38.3,22.82-38.3,22.82l-2.72-9.6Z"/>
        <circle class="cls-1" cx="160.22" cy="218.7" r="11.78"/>
        <circle class="cls-12" cx="162.16" cy="217.34" r="5.55"/>
        <polygon class="cls-8" points="175.81 220.22 162.42 213.62 130.4 214.02 116.39 203.72 165.05 203.37 175.81 220.22"/>
        <path class="cls-8" d="M182.59,318.08s6.74,19.27,8.4,20.96c1.66,1.69,66.35-21.34,65.31-30.62-1.25-11.25-42.08-9.38-54.28-6.94-5.89,1.18-9.29,3.33-11.3,4.9-4.98,3.93-7.19,8.99-8.13,11.69Z"/>
        <circle class="cls-1" cx="260.39" cy="199.4" r="11.78"/>
        <circle class="cls-12" cx="257.38" cy="198.07" r="5.3"/>
        <path class="cls-15" d="M202.26,301.71l1.23,3.45c.75.38,4.74.67,9.94-1.3v-3.56"/>
        <path class="cls-15" d="M224.6,299.61l-.27,3.73c-.64.55-4.69,1.06-10.22.45l-.68-3.11"/>
        <polygon class="cls-8" points="230.03 210.97 240.51 200.35 270.9 190.23 280.76 175.91 234.67 191.52 230.03 210.97"/>
        <path class="cls-13" d="M211.73,300.97c4.93-.66,8.96-.67,12.2-.68,3.62,0,8.15-.1,12.71.68,8.54,1.46,15.19,4.71,19.66,7.46.38-.57.85-1.43,1.02-2.54,1.37-9.13-19.33-24.48-33.21-20.33-4.75,1.42-5.94,4.29-12.54,5.76-5.79,1.29-10.95.43-14.4-.51-3.42,1.79-10.74,6.27-13.96,14.85-2.02,5.39-2.23,11.86-.61,12.43,1.81.65,3.46-6.95,11.18-12.03,5.1-3.35,10.53-4.08,17.96-5.08Z"/>
        <path class="cls-10" d="M191.07,324.27c1.26-2.37,4.19-7.9,10.11-10.26,5.15-2.06,7.01.51,15.06.09,8.9-.46,9.86-3.75,22.11-5.76,7.62-1.25,11.44-1.83,14.4.17,6.49,4.37,4.62,17.49,3.22,26.6-2.67,17.4-6.11,39.76-23.38,46.77-11.8,4.79-23.13-.4-24.06-.85-12.48-5.95-16.2-19.3-18.47-27.45-1.58-5.66-5-17.97,1.02-29.31Z"/>
        <path class="cls-8" d="M219.44,322.49c-1.96,12.92-3.07,26.68,1.34,39.21.56,1.82,1.48,3.46,2.3,5.19-1.01-1.6-2.06-3.21-2.78-4.99-5.16-12.21-4.15-26.82-.86-39.41h0Z"/>
        <ellipse class="cls-3" cx="232.2" cy="344.02" rx="19.08" ry="25.98" transform="translate(-173.63 430.99) rotate(-68.08)"/>
        <path class="cls-17" d="M323.59,205.73c.64.13,1,.79,1.26,1.39.77,1.78,1.37,3.62,1.97,5.46,1.18,3.6,2.36,7.26,2.48,11.05.02.5,0,1.04-.25,1.47s-.85.71-1.28.45"/>
        <path class="cls-11" d="M233.19,47.7c-.38-5.14-.22-14.11,4.52-23.5,6.74-13.34,20.12-22.33,33.89-23.95,7.16-.84,12.42.54,18.98,2.26,28.04,7.36,44.63,27.28,49.25,32.99,6.23,7.69,11.2,13.82,14.01,23.5,4.51,15.55-.59,26.32-5.42,46.54-4.86,20.31-10.81,45.23-5.42,70.94,2.17,10.34,7.52,35.88,27.11,43.38,11.25,4.31,28.72,3.24,35.25-7.68,6.38-10.67,1.4-29.22-15.36-39.76,3.31.22,8.58,1.08,13.56,4.52,11.29,7.82,16.32,25.71,9.04,39.76-9.13,17.62-32.14,16.79-33.44,16.72-17.88-.94-28.94-17.7-37.96-31.18-27.31-40.81-41.33-105.48-31.63-136.46,1.05-3.36,4.59-13.37,0-21.69-1.97-3.56-4.15-4.51-17.17-13.1-14.28-9.42-16.15-11.25-18.53-10.39-7.56,2.71-5,26.92-4.52,31.18-12.05-1.36-24.1-2.71-36.15-4.07Z"/>
        <path class="cls-11" d="M138.53,115.25s-8.13-30.57,17.62-43.41c25.76-12.84,65.75-19.69,97.6,0,31.86,19.69,67.1,61.72,63.03,110.52-5.28-7.26-15.62-19.34-32.59-27.97-4.81-2.45-15.67-7.85-30.51-9.2-10.5-.96-13.95.94-28.33,1.55-15.27.65-27.9-.79-33.29-1.66-9.63-1.55-30.32-6.82-53.55-29.82Z"/>
        <path class="cls-12" d="M211.36,259.01c-.25,1.04-2.58,1.39-7.23,2.09-4.73.71-7.09,1.07-7.65.12-.93-1.56,2.08-6.53,6.37-7.24,4.42-.73,8.94,3.26,8.51,5.03Z"/>
        <circle class="cls-14" cx="142.84" cy="262.92" r="21.94"/>
        <circle class="cls-14" cx="282.21" cy="235.12" r="21.82"/>
        <circle class="cls-9" cx="294.32" cy="201.31" r="1.91"/>
        <circle class="cls-9" cx="116.39" cy="229.32" r="1.91"/>
        <circle class="cls-9" cx="269.21" cy="153.28" r="1.23"/>
        <rect class="cls-12" x="241.28" y="367.02" width="107.97" height="4.76" transform="translate(159.26 -83.53) rotate(21.92)"/>
        <path class="cls-6" d="M338.59,388.68s-28.9-11.08-24.69-4.99c4.2,6.09,24.29,14.85,24.29,14.85"/>
        <path class="cls-6" d="M336.23,362s-28.81-24.05-29.18-18.27,17.4,24.14,17.4,24.14l11.77-5.87Z"/>
        <path class="cls-7" d="M369.5,461.53c6.88-10.43,6.77-7.24,18.02-13.76,15.43-8.95,28.37,5.02,43.32,7.02,10.33,1.38,21.2.19,31.73-2.17.12-1.03.24-2.05.35-3.12,1.98-18.91,1.29-25.95,4.51-32.15.42-.8,1.85-3.42,1.54-6.74-.37-3.9-2.96-6.68-5.02-8.69-7.29-7.09-16.49-12.73-21.29-15.48-1.47-.63-3.96-1.45-6.92-1.12-5.2.58-7.2,4.23-13.28,6.43-4.39,1.59-6.04-.51-9.04,1.39-2.17,1.38-4.52,4.2-4.15,7.05.11.86.45,1.47.65,1.84.96,1.77,2.52,2.62,4.11,3.45,0,0,1.87.98,3.61,1.43,3.37.87,12.47-1.07,23.6-6.26-.26,1.21-.89,4.87.98,8.86,1.49,3.18,3.81,4.94,4.89,5.66-1.3,1.11-2.89,2.75-4.24,5.03-3.09,5.23-2.91,10.46-2.7,12.65-2.64-2.67-4.62-5-5.94-6.63-4.69-5.78-5.8-8.62-9.78-11.32-2.73-1.85-2.95-1.02-6.6-2.96-2.27-1.2-5.3-3.18-15.37-14.32-5.06-5.6-5.69-6.64-8-7.55-4.34-1.7-8.74-.61-12.53.33-2.62.65-6.68,1.98-11.12,4.92-.94-2.89-2.54-6.93-5.33-11.3-1.51-2.37-3.58-5.56-7.04-8.6-3.75-3.3-4.95-2.75-12.23-6.97-8.61-4.99-9.34-7.15-13.88-7.71-.55-.07-8.37-.93-10.98,3.5-2.38,4.05,1.24,9.76,2.3,11.43,5.11,8.05,14.66,9.92,17.63,10.38-1.06.78-2.77,2.25-4.05,4.62-.28.51-2.69,5.14-1.18,10.37,1.51,5.21,6.38,9.14,12.36,10-3.07,4.87-4.96,9.28-6.14,12.6-2.26,6.34-3.36,9.58-1.88,13.02,1.39,3.22,4.77,6.07,8.97,6.5,4.86.49,8.23-2.5,8.77-3-2.48,7.81-.79,10.97-2.66,13.66-3.25,4.69,2.03,2.15,2.17,11.31"/>
        <g>
          <path class="cls-16" d="M370.09,395.32c-2.79.76-6.36,2.05-10.16,4.3-5.8,3.44-9.58,7.63-11.77,10.51"/>
          <path class="cls-16" d="M405.01,417.1s-3.33,11.06-8.1,13.05c-4.77,1.98-11.06,1.95-12.64,4.21s-13.95,25.32-15.05,26.12c-1.1.81-10.14,8.65-12.96,3.66-2.82-4.99-.23-13.72,1.89-23.97,0,0,6.31-17.1,15.88-23.96,9.57-6.85,25.86-17.99,37.11-9.49"/>
          <path class="cls-16" d="M428.32,428.9s-9.98,8.59-17.47,7.5-13.93-6.25-13.93-6.25"/>
          <path class="cls-16" d="M440.16,432.74s1.75,4.8,8.69,7.54"/>
          <path class="cls-16" d="M448.15,414.9s2.18,1.35,5.86.4"/>
          <path class="cls-16" d="M439.61,433.96s-8.72,3.71-9.59,14.34"/>
          <path class="cls-16" d="M349.38,417.84c2.26-.49,4.78.77,5.75,2.87"/>
          <path class="cls-16" d="M363.16,440.48c.04-.44.64-.53,1.09-.5,1.05.08,2.12.15,3.12.51s1.93,1.02,2.36,1.98"/>
          <path class="cls-16" d="M422.66,392.76c1.23,1.15,1.63,3.1.96,4.65"/>
          <path class="cls-16" d="M342.45,385.86c9.58,2.4,17.89,4.81,26.51,9.62"/>
        </g>
        <path class="cls-6" d="M366.14,454.39c1.07-2.41,1.99-5.14.71-7.11-1.03-1.57-3.27-2.37-5.1-2.02-2.89.56-4.45,3.91-6.25,8.56-5.07,13.07-7.6,19.6-5.8,20.67,2.81,1.68,12.52-11.3,16.44-20.11Z"/>
        <path class="cls-6" d="M352.15,432.03c1.13-1.58,3.01-4.36,2.13-6.97-.8-2.36-3.74-4.22-6.34-4.08-2.83.15-5.35,2.68-12.14,16.59-5.72,11.71-8.57,17.56-7.51,18.42,2.91,2.36,18.58-16.55,23.86-23.97Z"/>
        <path class="cls-6" d="M417.51,392.32s3.77,2.41,3.25,4.27c-.2.72-.98,1.11-1.58,1.35-4.5,1.79-25.73,5.64-26.18,2.62-.3-2,8.82-4.9,11.88-5.88,5.05-1.61,9.48-2.17,12.64-2.37Z"/>
        <path class="cls-12" d="M341.64,385.86l-14.72-6.29c5.19,4.81,11.97,6.12,14.39,6.5"/>
        <path class="cls-12" d="M213.58,348.59c-3.77-5.41-1.6-11.86-1.36-12.54,1.28-3.6,4.03-6.75,4.91-6.35,1.04.47-1.8,5.2-1.02,12.03.75,6.54,4.28,10.29,3.3,11.05-.82.63-3.95-1.48-5.84-4.19Z"/>
        <path class="cls-12" d="M109.93,308.32c-11.47,1.61-12.41,2.92-13.59,18.68-1.17-15.77-2.12-17.07-13.59-18.68,11.47-1.61,12.41-2.92,13.59-18.68,1.17,15.77,2.12,17.07,13.59,18.68Z"/>
        <path class="cls-12" d="M352.26,276.47c-10.36,1.46-11.22,2.64-12.28,16.89-1.06-14.25-1.92-15.43-12.28-16.89,10.36-1.46,11.22-2.64,12.28-16.89,1.06,14.25,1.92,15.43,12.28,16.89Z"/>
        <path class="cls-12" d="M314.16,360.65c-6,.84-6.5,1.53-7.11,9.78-.61-8.25-1.11-8.93-7.11-9.78,6-.84,6.5-1.53,7.11-9.78.61,8.25,1.11,8.93,7.11,9.78Z"/>
        <path class="cls-12" d="M356.23,217.34c-6,.84-6.5,1.53-7.11,9.78-.61-8.25-1.11-8.93-7.11-9.78,6-.84,6.5-1.53,7.11-9.78.61,8.25,1.11,8.93,7.11,9.78Z"/>
        <path class="cls-12" d="M114.72,326.27c-4.09.57-4.43,1.04-4.84,6.66-.42-5.62-.76-6.09-4.84-6.66,4.09-.57,4.43-1.04,4.84-6.66.42,5.62.76,6.09,4.84,6.66Z"/>
        <path class="cls-12" d="M122.31,377.76c-7.45,1.05-8.07,1.9-8.83,12.15-.76-10.25-1.38-11.1-8.83-12.15,7.45-1.05,8.07-1.9,8.83-12.15.76,10.25,1.38,11.1,8.83,12.15Z"/>
        <path class="cls-12" d="M163.76,377.76c-7.45,1.05-8.07,1.9-8.83,12.15-.76-10.25-1.38-11.1-8.83-12.15,7.45-1.05,8.07-1.9,8.83-12.15.76,10.25,1.38,11.1,8.83,12.15Z"/>
        <g>
          <path class="cls-2" d="M337.47,189.22c-2.36-.44-4.6-.44-6.44-.08-.09.02.09-.02,0,0,.07.11.15.22.22.33.08.13.17.25.25.38,1.45-.3,2.84-.24,4.73.11,4.31.81,7.47,3.22,7.06,5.39-.41,2.17-4.23,3.26-8.53,2.45-4.31-.81-7.47-3.22-7.06-5.39.06-.32.21-.6.41-.87-.03-.02-.06-.03-.08-.05-.09-.07-.18-.14-.26-.22-.11-.11-.2-.23-.28-.36-.02-.03-.04-.07-.06-.11-.48.46-.81.98-.92,1.57-.52,2.79,3.54,5.89,9.08,6.93,5.54,1.04,10.46-.37,10.98-3.16.52-2.79-3.54-5.89-9.08-6.93Z"/>
          <g>
            <path class="cls-4" d="M327.69,192.41c.06-.32.21-.6.41-.87-.03-.02-.06-.03-.08-.05-.09-.07-.18-.14-.26-.22-.11-.11-.2-.23-.28-.36-.02-.03-.04-.07-.06-.1-.48.45-.81.97-.92,1.56-.1.5-.04,1.02.15,1.53.98,1.58,3.51,3.03,6.65,3.62.25.05.49.08.73.12-3.93-.93-6.72-3.19-6.33-5.23Z"/>
            <path class="cls-4" d="M331.5,189.85c.13-.03-.14.02,0,0,1.18-.2,2.55-.21,4,0-.24-.06-.48-.11-.72-.16-1.34-.25-2.38-.34-3.54-.25.07.14.18.25.27.41Z"/>
            <path class="cls-4" d="M337.47,189.22c-.25-.05-.49-.08-.73-.12,5.16,1.17,8.86,4.12,8.36,6.78s-5.02,4.07-10.25,3.27c.24.05.48.11.72.16,5.54,1.04,10.46-.37,10.98-3.16s-3.54-5.89-9.08-6.93Z"/>
          </g>
        </g>
      </g>
      <path class="cls-12" d="M245.89,294.87c-.49.87-6.11-3.48-15.84-4.07-5.7-.34-9.54.8-9.83-.17-.28-.94,3.03-3.16,6.51-3.9,1.02-.22,3.61-.64,7.73.59,6.67,1.99,11.92,6.68,11.44,7.54Z"/>
    </g>
  </g>
</svg>